<mxfile host="drawio-plugin" modified="2024-06-25T19:27:56.737Z" agent="Mozilla/5.0 (Windows NT 10.0; Win64; x64) AppleWebKit/537.36 (KHTML, like Gecko) Chrome/122.0.0.0 Safari/537.36" etag="7fFb8K_ySIIUja7fIQKb" version="22.1.22" type="embed">
  <diagram id="l1lZY0W8vkF6sXJbo0kF" name="Page-1">
    <mxGraphModel dx="2202" dy="1852" grid="1" gridSize="10" guides="1" tooltips="1" connect="1" arrows="1" fold="1" page="1" pageScale="1" pageWidth="850" pageHeight="1100" math="0" shadow="0">
      <root>
        <mxCell id="0" />
        <mxCell id="1" parent="0" />
        <mxCell id="2" value="&lt;ul&gt;&lt;li&gt;&lt;font style=&quot;font-size: 17px;&quot;&gt;Я в сфере программировани&lt;/font&gt;&lt;/li&gt;&lt;li&gt;&lt;span style=&quot;font-size: 17px;&quot;&gt;Дипломный проэкт&lt;/span&gt;&lt;/li&gt;&lt;/ul&gt;" style="rounded=1;whiteSpace=wrap;html=1;align=left;" parent="1" vertex="1">
          <mxGeometry x="-20" y="230" width="200" height="240" as="geometry" />
        </mxCell>
        <mxCell id="3" value="" style="rounded=1;whiteSpace=wrap;html=1;" parent="1" vertex="1">
          <mxGeometry x="410" y="230" width="120" height="60" as="geometry" />
        </mxCell>
        <mxCell id="4" value="&lt;h1&gt;ПИСАТЬ ПРОЕКТ&lt;/h1&gt;&lt;p&gt;&lt;font style=&quot;font-size: 33px;&quot;&gt;За и против&lt;/font&gt;&lt;/p&gt;" style="text;html=1;strokeColor=none;fillColor=none;spacing=5;spacingTop=-20;whiteSpace=wrap;overflow=hidden;rounded=0;" parent="1" vertex="1">
          <mxGeometry x="210" y="100" width="220" height="120" as="geometry" />
        </mxCell>
        <mxCell id="16" value="&lt;h1&gt;Какие варианты&lt;/h1&gt;&lt;p&gt;&lt;br&gt;&lt;/p&gt;" style="text;html=1;strokeColor=none;fillColor=none;spacing=5;spacingTop=-20;whiteSpace=wrap;overflow=hidden;rounded=0;" parent="1" vertex="1">
          <mxGeometry x="155" y="-360" width="240" height="60" as="geometry" />
        </mxCell>
        <mxCell id="17" value="" style="endArrow=classic;html=1;rounded=0;" parent="1" edge="1">
          <mxGeometry width="50" height="50" relative="1" as="geometry">
            <mxPoint x="155" y="-320" as="sourcePoint" />
            <mxPoint x="40" y="-190" as="targetPoint" />
            <Array as="points" />
          </mxGeometry>
        </mxCell>
        <mxCell id="18" value="" style="endArrow=classic;html=1;rounded=0;" parent="1" edge="1">
          <mxGeometry width="50" height="50" relative="1" as="geometry">
            <mxPoint x="245" y="-320" as="sourcePoint" />
            <mxPoint x="235" y="-90" as="targetPoint" />
            <Array as="points" />
          </mxGeometry>
        </mxCell>
        <mxCell id="19" value="" style="endArrow=classic;html=1;rounded=0;" parent="1" edge="1">
          <mxGeometry width="50" height="50" relative="1" as="geometry">
            <mxPoint x="335" y="-320" as="sourcePoint" />
            <mxPoint x="475" y="-200" as="targetPoint" />
          </mxGeometry>
        </mxCell>
        <mxCell id="21" value="&lt;font style=&quot;font-size: 17px;&quot;&gt;&lt;b&gt;УЧИТЬ ГОТОВЫЕ БОТЫ&lt;/b&gt;&lt;/font&gt;" style="text;html=1;align=center;verticalAlign=middle;resizable=0;points=[];autosize=1;strokeColor=none;fillColor=none;" parent="1" vertex="1">
          <mxGeometry x="-110" y="-176" width="230" height="30" as="geometry" />
        </mxCell>
        <mxCell id="22" value="&lt;h1&gt;ПИСАТЬ ПРОЕКТ ПО БОТАМ И УЧИТЬ БОТОВ&lt;/h1&gt;" style="text;html=1;strokeColor=none;fillColor=none;spacing=5;spacingTop=-20;whiteSpace=wrap;overflow=hidden;rounded=0;" parent="1" vertex="1">
          <mxGeometry x="95" y="-130" width="290" height="100" as="geometry" />
        </mxCell>
        <mxCell id="23" value="&lt;font size=&quot;1&quot; style=&quot;&quot;&gt;&lt;b style=&quot;font-size: 17px;&quot;&gt;Писать проект по ботам&lt;/b&gt;&lt;/font&gt;" style="text;html=1;strokeColor=none;fillColor=none;align=center;verticalAlign=middle;whiteSpace=wrap;rounded=0;" parent="1" vertex="1">
          <mxGeometry x="435" y="-200" width="220" height="78" as="geometry" />
        </mxCell>
      </root>
    </mxGraphModel>
  </diagram>
</mxfile>
